# xmcd
#
# Track frame offsets:
#	150
#	19037
#	41150
#	59878
#	76525
#	99386
#
# Disc length: 1545 seconds
#
# Revision: 0
# Processed by: cddbd v1.4PL0 Copyright (c) Steve Scherf et al.
# Submitted via: dBpowerAMP V4.0
#
DISCID=43060706
DTITLE=Le Group - Nightlife
DYEAR=1900
DGENRE=
TTITLE0=Nightlife
TTITLE1=Nightlife
TTITLE2=Notte
TTITLE3=Nightlife
TTITLE4=Nightlife
TTITLE5=Nightlife
EXTD=
EXTT0=
EXTT1=
EXTT2=
EXTT3=
EXTT4=
EXTT5=
PLAYORDER=
